# xmcd CD database file
#
# Track frame offsets:
#	150
#	21812
#	40179
#	57342
#	72195
#	84296
#	100243
#	114326
#	131931
#	146872
#	162476
#	176644
#	192089
#	208408
#	229472
#
# Disc length: 3214 seconds
#
# Revision: 0
# Processed by: cddbd v1.5.2PL0 Copyright (c) Steve Scherf et al.
# Submitted via: CDex 1.50beta9
#
DISCID=de0c8c0f
DTITLE=M. Farao - Piano World Hits CD2
DYEAR=2010
DGENRE=Jazz
TTITLE0=Fly Me To The Moon
TTITLE1=My Way
TTITLE2=Feelings
TTITLE3=Isn't She Lovely
TTITLE4=The Lady Is A Tramp
TTITLE5=The Odd Coupple
TTITLE6=The Mission
TTITLE7=C'Era Una Volta Il West
TTITLE8=Il Buono, Il Brutto, Il Cattivo
TTITLE9=Someone To Watch Over Me
TTITLE10=I Got Rhythm
TTITLE11=Honey Suckle Rose
TTITLE12=As Tome Goes By
TTITLE13=Georgia On My Mind
TTITLE14=Tea For Two
EXTD=YEAR: 2010
EXTT0=
EXTT1=
EXTT2=
EXTT3=
EXTT4=
EXTT5=
EXTT6=
EXTT7=
EXTT8=
EXTT9=
EXTT10=
EXTT11=
EXTT12=
EXTT13=
EXTT14=
PLAYORDER=
